<svg xmlns="http://www.w3.org/2000/svg" xmlns:xlink="http://www.w3.org/1999/xlink" width="11520" zoomAndPan="magnify" viewBox="0 0 8640 2592.000001" height="3456" preserveAspectRatio="xMidYMid meet" version="1.0"><defs><clipPath id="d473719d31"><path d="M 1.667969 0 L 8638.332031 0 L 8638.332031 2591 L 1.667969 2591 Z M 1.667969 0 " clip-rule="nonzero"/></clipPath><clipPath id="b214cc7600"><path d="M 1.667969 0 L 6603 0 L 6603 893 L 1.667969 893 Z M 1.667969 0 " clip-rule="nonzero"/></clipPath><clipPath id="78a7a18ea9"><path d="M 4474 0 L 8638.332031 0 L 8638.332031 562 L 4474 562 Z M 4474 0 " clip-rule="nonzero"/></clipPath><clipPath id="b5e5da28c2"><path d="M 2037 1412 L 8638.332031 1412 L 8638.332031 2591 L 2037 2591 Z M 2037 1412 " clip-rule="nonzero"/></clipPath><clipPath id="756d410dc6"><path d="M 1.667969 1743 L 4166 1743 L 4166 2591 L 1.667969 2591 Z M 1.667969 1743 " clip-rule="nonzero"/></clipPath></defs><g clip-path="url(#d473719d31)"><path fill="#ffffff" d="M 1.667969 0 L 8638.332031 0 L 8638.332031 2591 L 1.667969 2591 Z M 1.667969 0 " fill-opacity="1" fill-rule="nonzero"/><path fill="#ffffff" d="M 1.667969 0 L 8638.332031 0 L 8638.332031 2591 L 1.667969 2591 Z M 1.667969 0 " fill-opacity="1" fill-rule="nonzero"/></g><g clip-path="url(#b214cc7600)"><path fill="#1a5f7a" d="M 1.667969 863.015625 C 2007.75 1006.167969 3075.886719 608.882812 4192.394531 193.675781 C 4897.792969 -68.878906 5621.976562 -338.128906 6602.453125 -489.054688 L 1.667969 -489.054688 Z M 1.667969 863.015625 " fill-opacity="1" fill-rule="evenodd"/></g><g clip-path="url(#78a7a18ea9)"><path fill="#117bab" d="M 4474.378906 225.628906 C 5475.800781 445.867188 6959.796875 641.054688 8638.332031 527.914062 L 8638.332031 -489.054688 L 7963.164062 -489.054688 C 6377.46875 -446.085938 5392.242188 -113.574219 4474.378906 225.628906 Z M 4474.378906 225.628906 " fill-opacity="1" fill-rule="evenodd"/></g><g clip-path="url(#b5e5da28c2)"><path fill="#1a5f7a" d="M 8638.332031 1441.890625 C 6632.25 1298.738281 5564.113281 1696.023438 4447.605469 2111.230469 C 3742.207031 2373.785156 3018.023438 2643.035156 2037.542969 2793.960938 L 8638.332031 2793.960938 Z M 8638.332031 1441.890625 " fill-opacity="1" fill-rule="evenodd"/></g><g clip-path="url(#756d410dc6)"><path fill="#117bab" d="M 4165.621094 2079.277344 C 3164.199219 1859.039062 1680.203125 1663.851562 1.667969 1776.992188 L 1.667969 2793.960938 L 676.835938 2793.960938 C 2262.53125 2750.992188 3247.757812 2418.480469 4165.621094 2079.277344 Z M 4165.621094 2079.277344 " fill-opacity="1" fill-rule="evenodd"/></g></svg>