<svg xmlns="http://www.w3.org/2000/svg" xmlns:xlink="http://www.w3.org/1999/xlink" width="11520" zoomAndPan="magnify" viewBox="0 0 8640 2592.000001" height="3456" preserveAspectRatio="xMidYMid meet" version="1.0"><defs><filter x="0%" y="0%" width="100%" height="100%" id="e096b001a9"><feColorMatrix values="0 0 0 0 1 0 0 0 0 1 0 0 0 0 1 0 0 0 1 0" color-interpolation-filters="sRGB"/></filter><clipPath id="b7a0739f83"><path d="M 1.667969 0 L 8638.332031 0 L 8638.332031 2591 L 1.667969 2591 Z M 1.667969 0 " clip-rule="nonzero"/></clipPath><mask id="dc9f10b0d7"><g filter="url(#e096b001a9)"><rect x="-864" width="10368" fill="#000000" y="-259.2" height="3110.400001" fill-opacity="0.51"/></g></mask><clipPath id="20f9b036c2"><path d="M 0.667969 1 L 8637.332031 1 L 8637.332031 2591 L 0.667969 2591 Z M 0.667969 1 " clip-rule="nonzero"/></clipPath><clipPath id="7510a633f8"><path d="M 1438 1 L 8637.332031 1 L 8637.332031 2591 L 1438 2591 Z M 1438 1 " clip-rule="nonzero"/></clipPath><clipPath id="b57326529d"><path d="M 1438 1 L 4656 1 L 4656 2591 L 1438 2591 Z M 1438 1 " clip-rule="nonzero"/></clipPath><clipPath id="f74afd7bf3"><path d="M 0.667969 1 L 4621 1 L 4621 2137 L 0.667969 2137 Z M 0.667969 1 " clip-rule="nonzero"/></clipPath><clipPath id="522fad155a"><rect x="0" width="8638" y="0" height="2591"/></clipPath></defs><g clip-path="url(#b7a0739f83)"><path fill="#ffffff" d="M 1.667969 0 L 8638.332031 0 L 8638.332031 2591 L 1.667969 2591 Z M 1.667969 0 " fill-opacity="1" fill-rule="nonzero"/><path fill="#ffffff" d="M 1.667969 0 L 8638.332031 0 L 8638.332031 2591 L 1.667969 2591 Z M 1.667969 0 " fill-opacity="1" fill-rule="nonzero"/><g mask="url(#dc9f10b0d7)"><g transform="matrix(1, 0, 0, 1, 1, -0.000000000000208807)"><g clip-path="url(#522fad155a)"><g clip-path="url(#20f9b036c2)"><path fill="#000000" d="M 8637.332031 149.371094 L 8637.332031 1220.359375 C 8226.746094 1386.359375 7831.144531 1590.746094 7433.859375 1785.632812 C 6552.355469 2223.597656 5688.472656 2702.5 4777.132812 3077.070312 C 4518.550781 3172.59375 4251.203125 3290.957031 3970.726562 3282.0625 C 3925.644531 3277.789062 3879.652344 3266.300781 3844.199219 3236.894531 C 3842.773438 3235.945312 3828.003906 3218.582031 3801.792969 3187.363281 C 3656.523438 3013.722656 3160.738281 2410.582031 2660.414062 1801.351562 C 2648.410156 1806.746094 2636.449219 1812.144531 2624.398438 1817.414062 C 1829.914062 2168.796875 881.648438 2524.714844 0.667969 2421.894531 L 0.667969 1.726562 L 8515.945312 1.726562 Z M 8637.332031 149.371094 " fill-opacity="0.1" fill-rule="nonzero"/></g><g clip-path="url(#7510a633f8)"><path fill="#007d7d" d="M 8637.332031 1.726562 L 8637.332031 917.386719 C 8226.746094 1083.382812 7831.144531 1287.769531 7433.859375 1482.65625 C 6552.355469 1920.621094 5688.472656 2399.527344 4777.132812 2774.140625 C 4518.550781 2869.621094 4251.203125 2988.027344 3970.726562 2979.089844 C 3925.644531 2974.8125 3879.652344 2963.328125 3844.199219 2933.917969 C 3842.773438 2932.96875 3828.003906 2915.609375 3801.792969 2884.386719 C 3775.191406 2852.605469 3736.847656 2806.441406 3688.867188 2748.445312 C 3685.371094 2744.171875 3681.742188 2739.808594 3678.117188 2735.40625 C 3677.8125 2735.015625 3677.511719 2734.628906 3677.167969 2734.28125 C 3673.238281 2729.488281 3669.21875 2724.652344 3665.117188 2719.6875 C 3658.988281 2712.300781 3652.726562 2704.703125 3646.332031 2696.972656 C 3644.089844 2694.25 3641.800781 2691.488281 3639.46875 2688.679688 C 3563.507812 2596.699219 3469.800781 2482.957031 3364.261719 2354.746094 C 3358.992188 2348.351562 3353.679688 2341.917969 3348.367188 2335.441406 C 3261.742188 2230.203125 3167.515625 2115.636719 3068.886719 1995.632812 C 3063.1875 1988.679688 3057.441406 1981.683594 3051.65625 1974.6875 C 3046.558594 1968.425781 3041.378906 1962.164062 3036.195312 1955.859375 C 3031.058594 1949.554688 3025.875 1943.25 3020.648438 1936.945312 C 2969.476562 1874.632812 2917.269531 1811.066406 2864.414062 1746.765625 C 2855.992188 1736.53125 2847.570312 1726.253906 2839.109375 1715.976562 C 2822.222656 1695.421875 2805.25 1674.78125 2788.28125 1654.09375 C 2779.773438 1643.730469 2771.265625 1633.367188 2762.757812 1623.003906 C 2728.730469 1581.589844 2694.574219 1540.003906 2660.414062 1498.417969 C 2641.847656 1475.789062 2623.234375 1453.164062 2604.664062 1430.535156 C 2600.042969 1424.878906 2595.425781 1419.265625 2590.761719 1413.605469 C 2586.140625 1407.949219 2581.476562 1402.292969 2576.8125 1396.636719 C 2572.191406 1390.980469 2567.527344 1385.320312 2562.90625 1379.707031 C 2527.023438 1335.964844 2491.222656 1292.347656 2455.640625 1249.035156 C 2447.175781 1238.714844 2438.753906 1228.4375 2430.292969 1218.160156 C 2428.390625 1215.828125 2426.492188 1213.539062 2424.546875 1211.207031 C 2415.4375 1200.023438 2406.28125 1188.878906 2397.125 1177.78125 C 2391.382812 1170.742188 2385.597656 1163.703125 2379.851562 1156.710938 C 2363.097656 1136.328125 2346.429688 1116.03125 2329.847656 1095.820312 C 2325.097656 1090.035156 2320.390625 1084.289062 2315.640625 1078.546875 C 2311.148438 1073.0625 2306.699219 1067.621094 2302.210938 1062.179688 C 2288.78125 1045.8125 2275.4375 1029.492188 2262.09375 1013.296875 C 2257.6875 1007.898438 2253.28125 1002.5 2248.835938 997.148438 C 2244.429688 991.75 2239.984375 986.351562 2235.578125 980.996094 C 2230.179688 974.390625 2224.738281 967.738281 2219.296875 961.132812 C 2189.671875 925.03125 2160.4375 889.449219 2131.636719 854.382812 C 2123.171875 844.019531 2114.707031 833.742188 2106.242188 823.464844 C 2088.882812 802.304688 2071.695312 781.316406 2054.683594 760.632812 C 2047.125 751.390625 2039.570312 742.191406 2032.054688 733.082031 C 1999.363281 693.265625 1967.496094 654.445312 1936.578125 616.789062 C 1932.734375 612.125 1928.933594 607.460938 1925.089844 602.796875 C 1909.800781 584.183594 1894.773438 565.875 1879.964844 547.867188 C 1876.292969 543.375 1872.621094 538.886719 1868.953125 534.4375 C 1846.972656 507.664062 1825.59375 481.625 1804.867188 456.40625 C 1801.414062 452.214844 1798 448.027344 1794.546875 443.839844 C 1765.742188 408.730469 1738.234375 375.21875 1712.152344 343.523438 C 1704.121094 333.765625 1696.21875 324.132812 1688.445312 314.71875 C 1659.46875 279.394531 1632.523438 246.621094 1607.863281 216.609375 C 1604.453125 212.417969 1601.042969 208.316406 1597.714844 204.257812 C 1560.363281 158.828125 1528.625 120.265625 1503.492188 89.777344 C 1501.71875 87.574219 1499.992188 85.460938 1498.265625 83.386719 C 1497.53125 82.480469 1496.796875 81.617188 1496.0625 80.753906 C 1494.679688 79.027344 1493.300781 77.382812 1491.960938 75.742188 C 1490.925781 74.492188 1489.886719 73.238281 1488.894531 72.03125 C 1487.125 69.914062 1485.398438 67.796875 1483.710938 65.769531 C 1483.453125 65.464844 1483.238281 65.164062 1482.976562 64.863281 C 1481.207031 62.703125 1479.480469 60.628906 1477.839844 58.644531 C 1468.46875 47.328125 1460.652344 37.828125 1454.433594 30.359375 C 1453.871094 29.625 1453.269531 28.933594 1452.707031 28.285156 C 1451.800781 27.164062 1450.894531 26.082031 1450.03125 25.046875 C 1449.035156 23.835938 1448.128906 22.714844 1447.222656 21.679688 C 1442.6875 16.195312 1439.664062 12.609375 1438.242188 10.96875 C 1477.625 52.425781 1542.789062 71.425781 1629.714844 71.425781 C 1632.824219 71.425781 1635.976562 71.382812 1639.128906 71.339844 C 1642.410156 71.296875 1645.738281 71.210938 1649.105469 71.121094 C 1652.773438 71.035156 1656.488281 70.863281 1660.289062 70.691406 C 1660.460938 70.691406 1660.679688 70.691406 1660.894531 70.648438 C 1663.355469 70.5625 1665.859375 70.433594 1668.363281 70.257812 C 1673.847656 69.957031 1679.417969 69.566406 1685.078125 69.09375 C 1687.882812 68.878906 1690.734375 68.660156 1693.582031 68.402344 C 1696.433594 68.144531 1699.328125 67.882812 1702.21875 67.582031 C 1711.71875 66.632812 1721.4375 65.550781 1731.324219 64.257812 C 1734.996094 63.78125 1738.667969 63.308594 1742.378906 62.789062 C 1753.609375 61.191406 1765.136719 59.421875 1776.882812 57.433594 C 1780.554688 56.828125 1784.3125 56.179688 1788.070312 55.492188 C 1791.824219 54.84375 1795.582031 54.152344 1799.425781 53.417969 C 1805.253906 52.339844 1811.214844 51.214844 1817.175781 50.007812 C 1820.671875 49.316406 1824.214844 48.625 1827.753906 47.847656 C 1831.296875 47.15625 1834.878906 46.378906 1838.464844 45.601562 C 1843.558594 44.523438 1848.742188 43.398438 1853.921875 42.234375 C 1856.515625 41.671875 1859.105469 41.066406 1861.738281 40.460938 C 1866.75 39.339844 1871.757812 38.175781 1876.855469 36.964844 C 1882.425781 35.667969 1888.039062 34.332031 1893.695312 32.949219 C 1920.078125 26.472656 1947.371094 19.214844 1975.484375 11.226562 C 1979.5 10.105469 1983.558594 8.980469 1987.617188 7.773438 C 1994.226562 5.871094 2000.917969 3.886719 2007.65625 1.898438 C 2007.871094 1.855469 2008.085938 1.769531 2008.304688 1.726562 Z M 8637.332031 1.726562 " fill-opacity="1" fill-rule="nonzero"/></g><g clip-path="url(#b57326529d)"><path fill="#013946" d="M 4478.996094 1427.988281 C 4352.292969 1674.605469 4207.542969 1911.554688 4068.234375 2151.265625 C 3978.023438 2328.402344 3718.792969 2675.726562 3801.792969 2884.386719 C 3775.191406 2852.605469 3736.84375 2806.441406 3688.867188 2748.445312 C 3685.371094 2744.171875 3681.742188 2739.808594 3678.117188 2735.40625 C 3677.8125 2735.015625 3677.511719 2734.628906 3677.167969 2734.28125 C 3673.238281 2729.488281 3669.21875 2724.652344 3665.117188 2719.6875 C 3658.984375 2712.300781 3652.722656 2704.703125 3646.332031 2696.972656 C 3644.085938 2694.25 3641.800781 2691.488281 3639.46875 2688.679688 C 3563.507812 2596.699219 3469.800781 2482.957031 3364.261719 2354.746094 C 3358.992188 2348.351562 3353.679688 2341.917969 3348.367188 2335.441406 C 3261.742188 2230.203125 3167.515625 2115.636719 3068.886719 1995.632812 C 3063.1875 1988.679688 3057.441406 1981.683594 3051.65625 1974.6875 C 3046.558594 1968.425781 3041.378906 1962.164062 3036.195312 1955.859375 C 3031.058594 1949.554688 3025.875 1943.25 3020.648438 1936.945312 C 2969.476562 1874.632812 2917.269531 1811.066406 2864.414062 1746.765625 C 2855.992188 1736.53125 2847.570312 1726.253906 2839.109375 1715.976562 C 2822.222656 1695.421875 2805.25 1674.78125 2788.28125 1654.09375 C 2779.773438 1643.730469 2771.265625 1633.367188 2762.757812 1623.003906 C 2728.730469 1581.589844 2694.574219 1540.003906 2660.414062 1498.417969 C 2641.847656 1475.789062 2623.234375 1453.164062 2604.664062 1430.535156 C 2600.042969 1424.878906 2595.425781 1419.265625 2590.761719 1413.605469 C 2586.140625 1407.949219 2581.476562 1402.292969 2576.8125 1396.636719 C 2572.234375 1390.980469 2567.570312 1385.363281 2562.90625 1379.707031 C 2527.023438 1335.964844 2491.222656 1292.347656 2455.640625 1249.035156 C 2447.175781 1238.714844 2438.753906 1228.4375 2430.292969 1218.160156 C 2428.390625 1215.828125 2426.492188 1213.539062 2424.546875 1211.207031 C 2415.4375 1200.023438 2406.28125 1188.878906 2397.125 1177.78125 C 2391.382812 1170.742188 2385.597656 1163.703125 2379.851562 1156.710938 C 2363.097656 1136.328125 2346.429688 1116.03125 2329.847656 1095.820312 C 2325.097656 1090.035156 2320.390625 1084.289062 2315.640625 1078.546875 C 2311.191406 1073.105469 2306.742188 1067.621094 2302.210938 1062.179688 C 2288.78125 1045.8125 2275.4375 1029.492188 2262.09375 1013.296875 C 2257.6875 1007.898438 2253.28125 1002.5 2248.835938 997.148438 C 2244.429688 991.75 2239.984375 986.351562 2235.578125 980.996094 C 2230.179688 974.390625 2224.738281 967.738281 2219.296875 961.132812 C 2189.671875 925.03125 2160.4375 889.449219 2131.636719 854.382812 C 2123.171875 844.019531 2114.707031 833.742188 2106.242188 823.464844 C 2088.882812 802.304688 2071.695312 781.316406 2054.683594 760.632812 C 2047.125 751.390625 2039.570312 742.191406 2032.054688 733.082031 C 1999.363281 693.265625 1967.496094 654.445312 1936.578125 616.789062 C 1932.734375 612.125 1928.933594 607.460938 1925.089844 602.796875 C 1909.800781 584.183594 1894.773438 565.875 1879.964844 547.867188 C 1876.292969 543.375 1872.621094 538.886719 1868.953125 534.4375 C 1846.972656 507.664062 1825.59375 481.625 1804.867188 456.40625 C 1801.414062 452.214844 1798 448.027344 1794.546875 443.839844 C 1765.742188 408.730469 1738.234375 375.21875 1712.152344 343.523438 C 1704.121094 333.765625 1696.21875 324.132812 1688.445312 314.71875 C 1659.46875 279.394531 1632.523438 246.621094 1607.863281 216.609375 C 1604.410156 212.417969 1601.042969 208.316406 1597.714844 204.257812 C 1560.363281 158.828125 1528.625 120.265625 1503.492188 89.777344 C 1501.71875 87.574219 1499.992188 85.460938 1498.265625 83.386719 C 1497.53125 82.480469 1496.796875 81.617188 1496.0625 80.753906 C 1494.679688 79.027344 1493.300781 77.382812 1491.960938 75.742188 C 1490.925781 74.492188 1489.886719 73.238281 1488.894531 72.03125 C 1487.125 69.914062 1485.398438 67.796875 1483.710938 65.769531 C 1483.453125 65.464844 1483.238281 65.164062 1482.976562 64.863281 C 1481.207031 62.703125 1479.480469 60.628906 1477.839844 58.644531 C 1468.46875 47.328125 1460.652344 37.828125 1454.433594 30.359375 C 1453.871094 29.625 1453.269531 28.933594 1452.707031 28.285156 C 1451.800781 27.164062 1450.894531 26.082031 1450.03125 25.046875 C 1449.035156 23.835938 1448.128906 22.714844 1447.222656 21.679688 C 1442.6875 16.195312 1439.664062 12.609375 1438.242188 10.96875 C 1477.625 52.425781 1542.789062 71.425781 1629.714844 71.425781 C 1632.824219 71.425781 1635.976562 71.382812 1639.128906 71.339844 C 1642.410156 71.296875 1645.738281 71.210938 1649.105469 71.121094 C 1652.773438 70.992188 1656.53125 70.863281 1660.289062 70.691406 C 1660.460938 70.691406 1660.679688 70.691406 1660.894531 70.648438 C 1663.355469 70.5625 1665.859375 70.433594 1668.363281 70.257812 C 1673.847656 69.957031 1679.417969 69.566406 1685.078125 69.09375 C 1687.882812 68.921875 1690.734375 68.660156 1693.582031 68.402344 C 1696.433594 68.144531 1699.328125 67.882812 1702.21875 67.582031 C 1711.71875 66.632812 1721.4375 65.550781 1731.324219 64.257812 C 1734.996094 63.78125 1738.667969 63.308594 1742.378906 62.789062 C 1753.609375 61.191406 1765.136719 59.421875 1776.882812 57.433594 C 1780.554688 56.828125 1784.3125 56.179688 1788.070312 55.492188 C 1791.824219 54.84375 1795.582031 54.152344 1799.425781 53.417969 C 1805.253906 52.339844 1811.214844 51.214844 1817.175781 50.007812 C 1820.671875 49.316406 1824.214844 48.582031 1827.753906 47.847656 C 1831.296875 47.113281 1834.878906 46.378906 1838.464844 45.601562 C 1843.601562 44.523438 1848.742188 43.398438 1853.921875 42.234375 C 1856.515625 41.671875 1859.105469 41.066406 1861.738281 40.460938 C 1866.75 39.339844 1871.757812 38.175781 1876.855469 36.964844 C 1882.425781 35.667969 1888.039062 34.332031 1893.695312 32.949219 C 1920.078125 26.472656 1947.371094 19.214844 1975.484375 11.226562 C 1979.5 10.105469 1983.558594 8.9375 1987.617188 7.773438 C 1994.226562 5.871094 2000.917969 3.886719 2007.65625 1.898438 C 2007.871094 1.855469 2008.085938 1.769531 2008.304688 1.726562 L 3967.011719 1.726562 C 4119.582031 187.199219 4257.464844 354.96875 4367.453125 488.75 C 4367.753906 489.09375 4368.015625 489.441406 4368.273438 489.785156 C 4373.023438 495.570312 4377.730469 501.316406 4382.394531 506.972656 C 4383.601562 508.441406 4384.8125 509.910156 4385.976562 511.378906 C 4392.542969 519.367188 4398.976562 527.226562 4405.324219 534.910156 C 4413.054688 544.324219 4420.609375 553.523438 4427.996094 562.507812 C 4428.6875 563.328125 4429.378906 564.148438 4430.023438 564.96875 C 4522.695312 677.847656 4588.03125 757.566406 4614.761719 790.429688 C 4614.761719 790.429688 4614.792969 790.457031 4614.851562 790.515625 L 4614.894531 790.515625 C 4623.445312 801.050781 4627.976562 806.75 4628.238281 807.183594 C 4644.820312 831.234375 4652.894531 860.039062 4655.613281 888.929688 C 4660.40625 1081.484375 4559.230469 1258.40625 4478.996094 1427.988281 Z M 4478.996094 1427.988281 " fill-opacity="1" fill-rule="nonzero"/></g><g clip-path="url(#f74afd7bf3)"><path fill="#019494" d="M 4620.851562 796.128906 C 4618.910156 794.183594 4616.921875 792.328125 4614.890625 790.558594 L 4614.847656 790.558594 C 4614.847656 790.558594 4614.847656 790.472656 4614.761719 790.429688 C 4505.550781 691.105469 4333.25 750.050781 4205.382812 780.148438 C 3660.023438 947.875 3178.398438 1265.832031 2660.414062 1498.417969 C 2648.410156 1503.816406 2636.40625 1509.171875 2624.398438 1514.441406 C 1829.914062 1865.824219 881.648438 2221.738281 0.667969 2118.921875 L 0.667969 1.726562 L 3967.617188 1.726562 C 4106.0625 170.402344 4232.113281 323.960938 4335.796875 450.230469 C 4346.59375 463.355469 4357.175781 476.226562 4367.453125 488.75 C 4367.753906 489.09375 4368.011719 489.441406 4368.273438 489.785156 C 4373.023438 495.570312 4377.730469 501.316406 4382.394531 506.972656 C 4383.601562 508.441406 4384.8125 509.910156 4385.976562 511.378906 C 4392.542969 519.367188 4398.976562 527.226562 4405.324219 534.910156 C 4407.265625 537.289062 4409.167969 539.617188 4411.109375 541.949219 C 4414.910156 546.570312 4418.710938 551.191406 4422.425781 555.726562 C 4424.324219 558.015625 4426.179688 560.261719 4427.996094 562.507812 C 4428.6875 563.328125 4429.375 564.148438 4430.023438 564.96875 C 4437.191406 573.648438 4444.144531 582.15625 4450.96875 590.445312 C 4553.054688 714.511719 4615.757812 790.472656 4620.851562 796.128906 Z M 4620.851562 796.128906 " fill-opacity="1" fill-rule="nonzero"/></g></g></g></g></g></svg>