<svg xmlns="http://www.w3.org/2000/svg" xmlns:xlink="http://www.w3.org/1999/xlink" width="11520" zoomAndPan="magnify" viewBox="0 0 8640 2592.000001" height="3456" preserveAspectRatio="xMidYMid meet" version="1.0"><defs><filter x="0%" y="0%" width="100%" height="100%" id="060a314884"><feColorMatrix values="0 0 0 0 1 0 0 0 0 1 0 0 0 0 1 0 0 0 1 0" color-interpolation-filters="sRGB"/></filter><clipPath id="79ff7d43f9"><path d="M 1.667969 0 L 8638.332031 0 L 8638.332031 2591 L 1.667969 2591 Z M 1.667969 0 " clip-rule="nonzero"/></clipPath><mask id="3cde4a40e6"><g filter="url(#060a314884)"><rect x="-864" width="10368" fill="#000000" y="-259.2" height="3110.400001" fill-opacity="0.65"/></g></mask><clipPath id="04cbe382f0"><path d="M 5 0 L 8633 0 L 8633 2591 L 5 2591 Z M 5 0 " clip-rule="nonzero"/></clipPath><clipPath id="65688f60d6"><rect x="0" width="8638" y="0" height="2591"/></clipPath></defs><g clip-path="url(#79ff7d43f9)"><path fill="#ffffff" d="M 1.667969 0 L 8638.332031 0 L 8638.332031 2591 L 1.667969 2591 Z M 1.667969 0 " fill-opacity="1" fill-rule="nonzero"/><path fill="#ffffff" d="M 1.667969 0 L 8638.332031 0 L 8638.332031 2591 L 1.667969 2591 Z M 1.667969 0 " fill-opacity="1" fill-rule="nonzero"/><g mask="url(#3cde4a40e6)"><g transform="matrix(1, 0, 0, 1, 1, -0.000000000000208807)"><g clip-path="url(#65688f60d6)"><g clip-path="url(#04cbe382f0)"><path fill="#809af4" d="M 5.726562 416.222656 L 5.726562 394.65625 L 214.394531 394.65625 L 442.308594 -0.101562 L 467.214844 -0.101562 L 226.847656 416.222656 Z M 3033.429688 -0.101562 L 3058.332031 -0.101562 L 2817.96875 416.222656 L 2007.992188 416.222656 L 1767.625 -0.101562 L 1792.527344 -0.101562 L 2020.441406 394.65625 L 2805.515625 394.65625 Z M 8632.28125 4156.167969 L 8485.800781 4156.167969 L 8080.8125 3454.707031 L 8485.800781 2753.246094 L 8632.28125 2753.246094 L 8632.28125 2774.8125 L 8498.253906 2774.8125 L 8105.714844 3454.707031 L 8498.253906 4134.601562 L 8632.28125 4134.601562 Z M 6842.414062 -0.101562 L 7109.644531 462.753906 L 6704.65625 1164.210938 L 5894.679688 1164.210938 L 5489.695312 462.753906 L 5756.921875 -0.101562 L 5781.828125 -0.101562 L 5514.597656 462.753906 L 5907.132812 1142.644531 L 6692.207031 1142.644531 L 7084.742188 462.753906 L 6817.511719 -0.101562 Z M 5649.460938 -0.101562 L 5409.097656 416.222656 L 4599.121094 416.222656 L 4358.753906 -0.101562 L 4383.65625 -0.101562 L 4611.570312 394.65625 L 5396.644531 394.65625 L 5624.558594 -0.101562 Z M 8000.214844 3408.179688 L 7190.242188 3408.179688 L 6785.253906 2706.722656 L 7190.242188 2005.261719 L 8000.214844 2005.261719 L 8405.203125 2706.722656 Z M 8380.300781 2706.722656 L 7987.765625 2026.828125 L 7202.691406 2026.828125 L 6810.15625 2706.722656 L 7202.691406 3386.613281 L 7987.765625 3386.613281 Z M 8000.214844 1912.199219 L 7190.242188 1912.199219 L 6785.253906 1210.738281 L 7190.242188 509.28125 L 8000.214844 509.28125 L 8405.203125 1210.738281 Z M 8380.300781 1210.738281 L 7987.765625 530.847656 L 7202.691406 530.847656 L 6810.15625 1210.738281 L 7202.691406 1890.632812 L 7987.765625 1890.632812 Z M 1522.425781 2660.191406 L 712.449219 2660.191406 L 307.460938 1958.730469 L 712.449219 1257.269531 L 1522.425781 1257.269531 L 1927.414062 1958.730469 Z M 1902.507812 1958.730469 L 1509.976562 1278.835938 L 724.902344 1278.835938 L 332.363281 1958.730469 L 724.898438 2638.625 L 1509.972656 2638.625 Z M 2817.988281 1912.199219 L 2008.007812 1912.199219 L 1603.023438 1210.738281 L 2008.007812 509.28125 L 2817.988281 509.28125 L 3222.972656 1210.738281 Z M 3198.074219 1210.738281 L 2805.535156 530.847656 L 2020.464844 530.847656 L 1627.921875 1210.738281 L 2020.460938 1890.632812 L 2805.53125 1890.632812 Z M 3198.074219 1210.738281 " fill-opacity="1" fill-rule="evenodd"/><path fill="#061248" d="M 5.726562 1912.21875 L 5.726562 509.296875 L 226.847656 509.296875 L 631.832031 1210.757812 L 226.847656 1912.21875 Z M 5.726562 3408.199219 L 5.726562 2005.28125 L 226.847656 2005.28125 L 631.832031 2706.742188 L 226.847656 3408.199219 Z M 574.675781 -0.0820312 L 1660.164062 -0.0820312 L 1927.394531 462.773438 L 1522.40625 1164.230469 L 712.429688 1164.230469 L 307.441406 462.773438 Z M 8632.28125 2660.214844 L 8485.800781 2660.214844 L 8080.8125 1958.753906 L 8485.800781 1257.296875 L 8632.28125 1257.296875 Z M 8632.28125 1164.230469 L 8485.800781 1164.230469 L 8080.8125 462.773438 L 8348.042969 -0.0820312 L 8632.28125 -0.0820312 Z M 8240.582031 -0.0820312 L 8000.21875 416.242188 L 7190.242188 416.242188 L 6949.875 -0.0820312 Z M 4251.285156 -0.0820312 L 4518.515625 462.773438 L 4113.527344 1164.230469 L 3303.550781 1164.230469 L 2898.5625 462.773438 L 3165.792969 -0.0820312 Z M 4251.285156 -0.0820312 " fill-opacity="1" fill-rule="evenodd"/></g></g></g></g></g></svg>