<svg xmlns="http://www.w3.org/2000/svg" xmlns:xlink="http://www.w3.org/1999/xlink" width="11520" zoomAndPan="magnify" viewBox="0 0 8640 2592.000001" height="3456" preserveAspectRatio="xMidYMid meet" version="1.0"><defs><filter x="0%" y="0%" width="100%" height="100%" id="f6b5e45e69"><feColorMatrix values="0 0 0 0 1 0 0 0 0 1 0 0 0 0 1 0 0 0 1 0" color-interpolation-filters="sRGB"/></filter><clipPath id="e38579e834"><path d="M 1.667969 0 L 8638.332031 0 L 8638.332031 2591 L 1.667969 2591 Z M 1.667969 0 " clip-rule="nonzero"/></clipPath><mask id="a33ce4afce"><g filter="url(#f6b5e45e69)"><rect x="-864" width="10368" fill="#000000" y="-259.2" height="3110.400001" fill-opacity="0.65"/></g></mask><clipPath id="624e1e65d4"><path d="M 0.703125 0 L 8628 0 L 8628 2591 L 0.703125 2591 Z M 0.703125 0 " clip-rule="nonzero"/></clipPath><clipPath id="2d4f44c1dd"><rect x="0" width="8631" y="0" height="2591"/></clipPath></defs><g clip-path="url(#e38579e834)"><path fill="#ffffff" d="M 1.667969 0 L 8638.332031 0 L 8638.332031 2591 L 1.667969 2591 Z M 1.667969 0 " fill-opacity="1" fill-rule="nonzero"/><path fill="#1976d2" d="M 1.667969 0 L 8638.332031 0 L 8638.332031 2591 L 1.667969 2591 Z M 1.667969 0 " fill-opacity="1" fill-rule="nonzero"/></g><g mask="url(#a33ce4afce)"><g transform="matrix(1, 0, 0, 1, 6, -0.000000000000208807)"><g clip-path="url(#2d4f44c1dd)"><g clip-path="url(#624e1e65d4)"><path fill="#0cc0df" d="M 0.726562 416.222656 L 0.726562 394.65625 L 209.394531 394.65625 L 437.308594 -0.101562 L 462.214844 -0.101562 L 221.847656 416.222656 Z M 3028.429688 -0.101562 L 3053.332031 -0.101562 L 2812.96875 416.222656 L 2002.992188 416.222656 L 1762.625 -0.101562 L 1787.527344 -0.101562 L 2015.441406 394.65625 L 2800.515625 394.65625 Z M 8627.28125 4156.167969 L 8480.800781 4156.167969 L 8075.8125 3454.707031 L 8480.800781 2753.246094 L 8627.28125 2753.246094 L 8627.28125 2774.8125 L 8493.253906 2774.8125 L 8100.714844 3454.707031 L 8493.253906 4134.601562 L 8627.28125 4134.601562 Z M 6837.414062 -0.101562 L 7104.644531 462.753906 L 6699.65625 1164.210938 L 5889.679688 1164.210938 L 5484.695312 462.753906 L 5751.921875 -0.101562 L 5776.828125 -0.101562 L 5509.597656 462.753906 L 5902.132812 1142.644531 L 6687.207031 1142.644531 L 7079.742188 462.753906 L 6812.511719 -0.101562 Z M 5644.460938 -0.101562 L 5404.097656 416.222656 L 4594.121094 416.222656 L 4353.753906 -0.101562 L 4378.65625 -0.101562 L 4606.570312 394.65625 L 5391.644531 394.65625 L 5619.558594 -0.101562 Z M 7995.214844 3408.179688 L 7185.242188 3408.179688 L 6780.253906 2706.722656 L 7185.242188 2005.261719 L 7995.214844 2005.261719 L 8400.203125 2706.722656 Z M 8375.300781 2706.722656 L 7982.765625 2026.828125 L 7197.691406 2026.828125 L 6805.15625 2706.722656 L 7197.691406 3386.613281 L 7982.765625 3386.613281 Z M 7995.214844 1912.199219 L 7185.242188 1912.199219 L 6780.253906 1210.738281 L 7185.242188 509.28125 L 7995.214844 509.28125 L 8400.203125 1210.738281 Z M 8375.300781 1210.738281 L 7982.765625 530.847656 L 7197.691406 530.847656 L 6805.15625 1210.738281 L 7197.691406 1890.632812 L 7982.765625 1890.632812 Z M 1517.425781 2660.191406 L 707.449219 2660.191406 L 302.460938 1958.730469 L 707.449219 1257.269531 L 1517.425781 1257.269531 L 1922.414062 1958.730469 Z M 1897.507812 1958.730469 L 1504.976562 1278.835938 L 719.902344 1278.835938 L 327.363281 1958.730469 L 719.898438 2638.625 L 1504.972656 2638.625 Z M 2812.988281 1912.199219 L 2003.007812 1912.199219 L 1598.023438 1210.738281 L 2003.007812 509.28125 L 2812.988281 509.28125 L 3217.972656 1210.738281 Z M 3193.074219 1210.738281 L 2800.535156 530.847656 L 2015.464844 530.847656 L 1622.921875 1210.738281 L 2015.460938 1890.632812 L 2800.53125 1890.632812 Z M 3193.074219 1210.738281 " fill-opacity="1" fill-rule="evenodd"/><path fill="#38b6ff" d="M 0.726562 1912.21875 L 0.726562 509.296875 L 221.847656 509.296875 L 626.832031 1210.757812 L 221.847656 1912.21875 Z M 0.726562 3408.199219 L 0.726562 2005.28125 L 221.847656 2005.28125 L 626.832031 2706.742188 L 221.847656 3408.199219 Z M 569.675781 -0.0820312 L 1655.164062 -0.0820312 L 1922.394531 462.773438 L 1517.40625 1164.230469 L 707.429688 1164.230469 L 302.441406 462.773438 Z M 8627.28125 2660.214844 L 8480.800781 2660.214844 L 8075.8125 1958.753906 L 8480.800781 1257.296875 L 8627.28125 1257.296875 Z M 8627.28125 1164.230469 L 8480.800781 1164.230469 L 8075.8125 462.773438 L 8343.042969 -0.0820312 L 8627.28125 -0.0820312 Z M 8235.582031 -0.0820312 L 7995.21875 416.242188 L 7185.242188 416.242188 L 6944.875 -0.0820312 Z M 4246.285156 -0.0820312 L 4513.515625 462.773438 L 4108.527344 1164.230469 L 3298.550781 1164.230469 L 2893.5625 462.773438 L 3160.792969 -0.0820312 Z M 4246.285156 -0.0820312 " fill-opacity="1" fill-rule="evenodd"/></g></g></g></g></svg>