<?xml version="1.0" standalone="no"?>
<!DOCTYPE svg PUBLIC "-//W3C//DTD SVG 20010904//EN"
 "http://www.w3.org/TR/2001/REC-SVG-20010904/DTD/svg10.dtd">
<svg version="1.0" xmlns="http://www.w3.org/2000/svg"
 width="800.000000pt" height="1143.000000pt" viewBox="0 0 800.000000 1143.000000"
 preserveAspectRatio="xMidYMid meet">

<g transform="translate(0.000000,1143.000000) scale(0.100000,-0.100000)"
fill="#000000" stroke="none">
<path d="M0 7460 l0 -3970 4000 0 4000 0 0 3970 0 3970 -4000 0 -4000 0 0
-3970z m4870 2575 l0 -1215 -1201 0 c-1000 0 -1200 -2 -1196 -13 3 -8 271
-521 596 -1141 325 -620 591 -1131 591 -1136 0 -24 -217 -123 -405 -186 -248
-82 -456 -114 -742 -114 -274 0 -497 38 -756 126 -753 258 -1337 906 -1516
1684 -58 251 -55 169 -58 1753 l-4 1457 2346 0 2345 0 0 -1215z m2733 -1573
c-510 -980 -2369 -4521 -2373 -4521 -4 0 -1836 3490 -2373 4521 l-98 188 2471
0 2471 0 -98 -188z"/>
<path d="M2040 3065 l0 -85 95 0 95 0 0 85 0 85 -95 0 -95 0 0 -85z"/>
<path d="M5180 3065 l0 -85 90 0 90 0 0 85 0 85 -90 0 -90 0 0 -85z"/>
<path d="M252 2778 c4 -345 5 -366 26 -418 55 -136 171 -200 362 -200 183 0
291 55 352 177 l33 68 3 367 3 368 -100 0 -101 0 0 -327 c0 -207 -4 -343 -11
-368 -41 -146 -278 -168 -340 -31 -17 37 -19 71 -19 384 l0 342 -106 0 -106 0
4 -362z"/>
<path d="M6010 2972 l0 -169 -43 42 c-53 51 -114 70 -197 62 -102 -9 -177 -66
-227 -172 -26 -56 -28 -68 -28 -195 0 -126 2 -139 27 -192 38 -82 71 -121 126
-151 100 -55 233 -42 308 28 20 19 38 35 40 35 2 0 4 -18 4 -40 l0 -40 90 0
90 0 0 480 0 480 -95 0 -95 0 0 -168z m-73 -242 c46 -27 74 -89 80 -174 7 -93
-9 -150 -55 -197 -86 -85 -210 -51 -251 70 -20 60 -14 181 12 231 42 84 139
116 214 70z"/>
<path d="M7580 2970 l0 -169 -43 42 c-52 52 -112 72 -195 64 -143 -12 -240
-121 -262 -291 -23 -186 43 -362 159 -421 105 -52 236 -39 306 31 l35 35 0
-41 0 -40 90 0 90 0 0 480 0 480 -90 0 -90 0 0 -170z m-80 -238 c56 -28 85
-97 85 -202 0 -99 -18 -146 -72 -188 -46 -34 -127 -37 -170 -6 -93 67 -105
281 -20 372 12 14 31 28 42 32 34 15 98 11 135 -8z"/>
<path d="M1540 2901 c-51 -16 -89 -42 -119 -78 l-31 -38 0 53 0 52 -85 0 -85
0 0 -355 0 -355 90 0 90 0 0 225 c0 243 4 269 53 313 51 47 151 48 193 1 17
-19 19 -42 22 -280 l3 -259 94 0 95 0 0 263 c0 203 -3 275 -15 313 -16 54 -57
100 -115 129 -38 20 -151 29 -190 16z"/>
<path d="M3326 2894 c-100 -32 -161 -92 -202 -199 -26 -67 -26 -237 -1 -311
44 -128 119 -192 250 -215 163 -27 305 32 368 153 33 65 30 68 -71 68 -80 0
-90 -2 -100 -21 -30 -55 -131 -76 -200 -41 -39 19 -80 88 -80 134 l0 28 245 0
244 0 -5 68 c-18 226 -123 341 -319 349 -53 2 -96 -2 -129 -13z m172 -148 c41
-21 73 -60 82 -100 l8 -36 -149 0 -149 0 6 28 c23 98 121 150 202 108z"/>
<path d="M4190 2887 c-26 -14 -57 -43 -77 -71 l-33 -48 0 61 0 61 -90 0 -90 0
0 -355 0 -355 95 0 95 0 0 218 c0 199 2 220 20 250 30 49 75 72 143 72 l57 0
0 95 0 95 -38 0 c-22 0 -58 -10 -82 -23z"/>
<path d="M4572 2892 c-105 -34 -162 -109 -162 -216 0 -61 14 -98 52 -133 32
-31 81 -49 206 -79 157 -38 195 -62 173 -110 -17 -37 -74 -57 -145 -51 -69 6
-107 30 -121 75 l-9 32 -93 0 c-104 0 -103 1 -82 -75 16 -59 90 -126 164 -150
84 -27 240 -27 313 0 107 39 161 112 162 215 0 116 -53 160 -260 215 -149 40
-180 55 -180 88 0 46 36 67 112 67 66 0 99 -16 117 -58 l15 -32 88 0 c88 0 88
0 88 25 0 34 -26 94 -53 123 -68 73 -258 105 -385 64z"/>
<path d="M6540 2899 c-73 -14 -131 -57 -162 -119 -15 -30 -28 -68 -30 -85 l-3
-30 86 -3 c86 -3 87 -3 93 23 4 15 18 38 31 51 20 20 34 24 88 24 81 0 117
-23 117 -75 0 -48 -23 -60 -160 -80 -63 -9 -134 -26 -157 -37 -87 -41 -130
-123 -120 -227 12 -112 88 -175 212 -175 84 0 131 14 190 59 l43 34 9 -37 9
-37 102 -3 c56 -1 102 1 102 5 0 3 -10 17 -22 31 -22 23 -23 31 -28 290 -5
252 -6 269 -27 302 -12 19 -35 43 -51 52 -71 42 -213 58 -322 37z m220 -439
c0 -95 -29 -134 -117 -160 -79 -24 -133 11 -133 84 0 60 34 89 127 106 37 7
77 16 88 21 34 13 35 11 35 -51z"/>
<path d="M2040 2535 l0 -355 95 0 95 0 0 355 0 355 -95 0 -95 0 0 -355z"/>
<path d="M2375 2798 c18 -51 75 -211 127 -356 l93 -262 99 2 99 3 127 353 127
352 -98 0 c-55 0 -99 -1 -99 -3 0 -7 -150 -510 -153 -513 -2 -3 -32 96 -66
218 -34 123 -67 240 -73 261 l-11 37 -103 0 -103 0 34 -92z"/>
<path d="M5180 2535 l0 -355 90 0 90 0 0 355 0 355 -90 0 -90 0 0 -355z"/>
<path d="M1870 1623 l0 -167 -37 36 c-49 48 -99 68 -169 68 -90 0 -132 -18
-196 -80 -72 -73 -98 -147 -98 -284 0 -142 33 -237 107 -308 52 -50 101 -69
183 -69 82 0 142 23 188 72 l32 34 0 -47 0 -48 90 0 90 0 0 480 0 480 -95 0
-95 0 0 -167z m-60 -248 c47 -42 64 -94 65 -190 0 -104 -20 -155 -75 -192 -39
-27 -116 -31 -159 -8 -105 54 -109 328 -7 395 41 28 144 24 176 -5z"/>
<path d="M2980 1310 l0 -481 93 3 92 3 3 478 2 477 -95 0 -95 0 0 -480z"/>
<path d="M3821 1320 c87 -259 161 -475 164 -480 8 -13 182 -13 190 -1 3 6 77
222 165 480 l159 471 -102 0 -103 0 -104 -360 c-57 -198 -107 -356 -111 -352
-3 4 -50 166 -105 359 l-99 353 -106 0 -106 0 158 -470z"/>
<path d="M5300 1310 l0 -480 90 0 90 0 0 480 0 480 -90 0 -90 0 0 -480z"/>
<path d="M5670 1310 l0 -481 93 3 92 3 3 478 2 477 -95 0 -95 0 0 -480z"/>
<path d="M2385 1542 c-94 -33 -155 -95 -189 -196 -35 -102 -29 -256 13 -351
43 -97 132 -159 249 -174 169 -21 305 44 363 173 l18 41 -92 3 c-89 3 -92 2
-111 -24 -60 -82 -209 -65 -255 30 -12 23 -21 54 -21 69 l0 27 245 0 245 0 0
28 c-1 127 -52 268 -118 322 -82 68 -235 91 -347 52z m203 -152 c30 -19 71
-86 72 -117 0 -10 -37 -13 -150 -13 l-150 0 6 28 c12 48 34 82 67 102 42 26
112 26 155 0z"/>
<path d="M4725 1553 c-97 -22 -154 -68 -185 -149 -32 -86 -33 -84 70 -84 71 0
90 3 90 14 0 8 11 28 25 45 66 78 234 29 212 -61 -8 -32 -33 -41 -173 -62
-116 -18 -146 -27 -193 -63 -46 -35 -71 -94 -71 -168 0 -137 77 -208 221 -207
75 1 126 19 181 62 20 17 39 30 41 30 3 0 7 -18 11 -40 l6 -40 100 0 c107 0
114 4 80 47 -19 24 -20 41 -20 275 0 186 -3 257 -14 281 -19 46 -78 94 -138
112 -48 14 -194 19 -243 8z m198 -525 c-29 -50 -66 -71 -132 -76 -54 -4 -62
-2 -87 23 -23 23 -26 32 -21 68 7 55 40 82 114 97 32 6 76 16 98 23 l40 12 3
-58 c2 -42 -2 -67 -15 -89z"/>
<path d="M6192 1541 c-72 -25 -119 -66 -158 -136 -81 -145 -63 -375 37 -489
82 -94 277 -129 410 -73 55 23 119 86 145 142 l24 50 -92 3 c-91 3 -92 3 -115
-27 -68 -87 -233 -51 -263 57 -21 77 -39 72 235 72 l245 0 0 33 c0 121 -53
263 -118 317 -83 69 -235 91 -350 51z m206 -151 c30 -19 71 -86 72 -117 0 -10
-37 -13 -150 -13 l-150 0 6 28 c12 48 34 82 67 102 42 26 112 26 155 0z"/>
<path d="M0 145 l0 -135 4000 0 4000 0 0 135 0 135 -4000 0 -4000 0 0 -135z"/>
</g>
</svg>
